<svg width="72" height="72" viewBox="0 0 72 72" fill="none" xmlns="http://www.w3.org/2000/svg">
<path d="M27.907 19.3404L34.4817 30.852C34.4817 30.852 34.4817 30.852 34.4827 30.8529C34.9696 31.704 36.197 31.6891 36.668 30.8361L43.0664 19.2251C46.2684 13.4109 41.792 6.74512 35.3911 6.74512C29.128 6.79285 24.559 13.4849 27.907 19.3404ZM35.4024 8.18512H35.4586C40.6297 8.18512 44.4991 13.6428 41.8045 18.5295L35.5674 29.8489L29.1577 18.6261C26.3761 13.7591 30.2059 8.22465 35.4024 8.18512Z" fill="black"/>
<path d="M35.4554 19.7702C37.8414 19.7702 39.7829 17.8287 39.7829 15.4427C39.7829 13.0568 37.8414 11.1152 35.4554 11.1152C33.0695 11.1152 31.1279 13.0568 31.1279 15.4427C31.1279 17.8287 33.0695 19.7702 35.4554 19.7702ZM35.4554 12.5552C37.0473 12.5552 38.3429 13.8509 38.3429 15.4427C38.3429 17.0346 37.0473 18.3302 35.4554 18.3302C33.8636 18.3302 32.5679 17.0346 32.5679 15.4427C32.5679 13.8509 33.8636 12.5552 35.4554 12.5552Z" fill="black"/>
<path d="M53.7309 36.2068C54.0459 35.964 54.104 35.5121 53.8612 35.1971L52.1015 32.9171C51.8596 32.603 51.4059 32.543 51.0918 32.7868C50.7768 33.0296 50.7187 33.4815 50.9615 33.7965L52.7212 36.0765C52.9648 36.3927 53.4195 36.4487 53.7309 36.2068Z" fill="black"/>
<path d="M19.1667 32.3801L17.1398 34.4257C16.8605 34.7088 16.8623 35.1644 17.1445 35.4448C17.4265 35.723 17.8806 35.7231 18.1636 35.4401L20.1905 33.3944C20.4698 33.1113 20.468 32.6557 20.1858 32.3754C19.9017 32.096 19.447 32.0988 19.1667 32.3801Z" fill="black"/>
<path d="M38.878 33.354H32.5696C32.1721 33.354 31.8496 33.6765 31.8496 34.074C31.8496 34.4715 32.1721 34.794 32.5696 34.794H38.878C39.2755 34.794 39.598 34.4715 39.598 34.074C39.598 33.6765 39.2755 33.354 38.878 33.354Z" fill="black"/>
<path d="M28.2108 37.0301C28.2108 37.4276 28.5333 37.7501 28.9308 37.7501H43.4104C43.8079 37.7501 44.1304 37.4276 44.1304 37.0301C44.1304 36.6326 43.8079 36.3101 43.4104 36.3101H28.9308C28.5333 36.3101 28.2108 36.6326 28.2108 37.0301Z" fill="black"/>
<path d="M22.4839 8.69775C22.2027 8.4165 21.7471 8.4165 21.4658 8.69775C21.1846 8.979 21.1846 9.43463 21.4658 9.71588L24.1733 12.4243C24.3139 12.5649 24.4977 12.6353 24.6824 12.6353C25.3168 12.6353 25.6474 11.8621 25.1914 11.4062L22.4839 8.69775Z" fill="black"/>
<path d="M47.1361 12.4243L49.8436 9.71588C50.1248 9.43463 50.1248 8.979 49.8436 8.69775C49.5623 8.4165 49.1067 8.4165 48.8254 8.69775L46.1179 11.4062C45.6621 11.862 45.9925 12.6353 46.627 12.6353C46.8117 12.6353 46.9954 12.5649 47.1361 12.4243Z" fill="black"/>
<path d="M35.5406 4.22398V1.4368C35.5406 1.0393 35.2181 0.716797 34.8206 0.716797C34.4231 0.716797 34.1006 1.0393 34.1006 1.4368V4.22398C34.1006 4.62148 34.4231 4.94398 34.8206 4.94398C35.2181 4.94398 35.5406 4.62148 35.5406 4.22398Z" fill="black"/>
<path d="M18.2292 28.2679C17.8102 28.6569 16.2942 29.1088 14.9677 29.1088C14.4826 29.1088 15.0727 28.8918 4.82672 37.1244C4.29909 37.5537 4.6068 38.4041 5.28047 38.4041C6.22922 38.4041 6.52922 38.6469 6.55266 38.7069C6.57516 38.7632 6.51984 39.1241 5.85234 39.7438C5.37401 40.1871 5.68739 40.9916 6.34172 40.9916H65.6592C66.3139 40.9916 66.6266 40.1868 66.1486 39.7438C65.4811 39.1251 65.4258 38.7632 65.4483 38.7069C65.4717 38.6469 65.7717 38.4041 66.7205 38.4041C67.3951 38.4041 67.7008 37.5528 67.1742 37.1244L57.488 29.2691C57.3595 29.166 57.1992 29.1088 57.0342 29.1088C55.7077 29.1088 54.1908 28.6569 53.7717 28.2679C53.6386 28.1441 53.4642 28.0757 53.2823 28.0757H40.0777C39.6802 28.0757 39.3577 28.3982 39.3577 28.7957C39.3577 29.1932 39.6802 29.5157 40.0777 29.5157H47.659L49.2023 31.5154C49.3439 31.6991 49.5577 31.7957 49.7733 31.7957C50.3589 31.7957 50.7121 31.1157 50.3423 30.636L49.4777 29.5157H53.032C53.8973 30.1241 55.4967 30.4982 56.7727 30.5441L65.0489 37.2547C64.1219 37.6683 63.739 38.567 64.1977 39.5516H57.2208L55.6195 37.4769C55.3777 37.1629 54.9239 37.1029 54.6098 37.3466C54.2948 37.5894 54.2367 38.0413 54.4795 38.3563L55.402 39.5516H14.0794C14.2285 39.4178 15.617 38.0076 16.1367 37.4854C16.4161 37.2022 16.4142 36.7466 16.132 36.4663C15.848 36.186 15.3933 36.1907 15.113 36.471L13.0852 38.5176C12.8058 38.8007 12.8077 39.2563 13.0898 39.5366C13.0966 39.5433 13.1057 39.5453 13.1127 39.5516H7.80328C8.26418 38.5621 7.8751 37.6669 6.95297 37.2547L15.2292 30.5441C16.5042 30.4982 18.1036 30.1241 18.9689 29.5157H22.0055L21.1945 30.3341C20.9152 30.6172 20.917 31.0729 21.1992 31.3532C21.4812 31.6314 21.9353 31.6315 22.2183 31.3485L24.0342 29.5157H30.5789C30.9764 29.5157 31.2989 29.1932 31.2989 28.7957C31.2989 28.3982 30.9764 28.0757 30.5789 28.0757H18.7186C18.5367 28.0757 18.3623 28.1441 18.2292 28.2679Z" fill="black"/>
<path d="M6.3417 45.2828H65.6592C66.3139 45.2828 66.6266 44.4779 66.1486 44.0349C65.4492 43.3862 65.4267 43.0337 65.4511 42.9915C65.6498 42.6474 65.5317 42.2068 65.1876 42.0081C64.8417 41.8084 64.403 41.9284 64.2042 42.2715C64.0251 42.5809 63.862 43.119 64.1986 43.8428H7.79858C8.24108 42.8856 7.81264 42.2462 7.62326 42.0287C7.36076 41.7287 6.90701 41.6978 6.60701 41.9593C6.30701 42.2209 6.27608 42.6756 6.53764 42.9756C6.60701 43.0543 6.47295 43.4584 5.85233 44.0349C5.37534 44.477 5.68503 45.2828 6.3417 45.2828Z" fill="black"/>
</svg>
