<svg width="15" height="15" viewBox="0 0 15 15" fill="none" xmlns="http://www.w3.org/2000/svg">
<path d="M7.50518 0C3.36439 0 0 3.36207 0 7.5C0 11.6379 3.36439 15 7.50518 15C11.646 15 15 11.6379 15 7.5C15 3.36207 11.646 0 7.50518 0ZM10.0828 9.87931C10.0828 10.3759 10.1605 10.8828 10.3209 11.3638C9.4824 10.7483 8.48861 10.4483 7.50518 10.4483C6.52174 10.4483 5.53313 10.7483 4.68944 11.3638C4.8499 10.8776 4.92754 10.381 4.92754 9.88966C4.92754 8.38966 4.21843 6.93621 2.95549 6.02069C3.99068 6.02069 4.97412 5.68448 5.77122 5.10517C6.56832 4.52586 7.18427 3.70345 7.50518 2.71552C8.14182 4.68621 9.97412 6.02586 12.0549 6.02586C10.7919 6.94138 10.0828 8.38448 10.0828 9.88448V9.87931Z" fill="#14161A"/>
</svg>
